<svg id="visual" viewBox="0 0 900 600" width="900" height="600" xmlns="http://www.w3.org/2000/svg" xmlns:xlink="http://www.w3.org/1999/xlink" version="1.1"><rect x="0" y="0" width="900" height="600" fill="#f1f1f1"></rect><path d="M0 107L21.5 97.3C43 87.7 86 68.3 128.8 71.3C171.7 74.3 214.3 99.7 257.2 102C300 104.3 343 83.7 385.8 70.5C428.7 57.3 471.3 51.7 514.2 62.8C557 74 600 102 642.8 101.8C685.7 101.7 728.3 73.3 771.2 62.2C814 51 857 57 878.5 60L900 63L900 0L878.5 0C857 0 814 0 771.2 0C728.3 0 685.7 0 642.8 0C600 0 557 0 514.2 0C471.3 0 428.7 0 385.8 0C343 0 300 0 257.2 0C214.3 0 171.7 0 128.8 0C86 0 43 0 21.5 0L0 0Z" fill="#2d77e6" stroke-linecap="round" stroke-linejoin="miter"></path></svg>